<?xml version="1.0" standalone="no"?>
<!DOCTYPE svg PUBLIC "-//W3C//DTD SVG 20010904//EN"
 "http://www.w3.org/TR/2001/REC-SVG-20010904/DTD/svg10.dtd">
<svg version="1.0" xmlns="http://www.w3.org/2000/svg"
 width="512.000000pt" height="512.000000pt" viewBox="0 0 512.000000 512.000000"
 preserveAspectRatio="xMidYMid meet">
<metadata>
Created by potrace 1.14, written by Peter Selinger 2001-2017
</metadata>
<g transform="translate(0.000000,512.000000) scale(0.100000,-0.100000)"
fill="#000000" stroke="none">
<path d="M4485 4891 c-10 -21 -40 -43 -94 -71 -95 -50 -185 -129 -242 -213
-23 -34 -38 -51 -34 -37 14 50 43 106 76 149 116 150 104 150 -45 -1 -113
-113 -123 -121 -101 -79 37 72 79 126 129 161 25 19 44 35 41 38 -5 5 -272
-170 -359 -235 -54 -41 -57 -42 -37 -15 25 36 76 80 108 95 13 6 23 14 23 19
0 14 -239 -112 -351 -185 l-26 -17 19 56 c32 96 15 94 -36 -4 -41 -79 -58
-100 -105 -134 -108 -79 -155 -124 -285 -268 -72 -80 -144 -161 -160 -180 -35
-42 -25 -26 77 124 83 121 192 235 278 287 27 17 48 33 45 36 -8 9 -251 -115
-336 -171 l-85 -56 50 46 c28 25 91 76 140 114 138 103 135 114 -5 19 -85 -57
-162 -121 -242 -199 -64 -63 -114 -110 -110 -105 3 6 30 42 59 82 57 76 90
107 167 161 27 18 46 36 43 38 -6 6 -101 -56 -282 -185 -111 -79 -272 -226
-324 -296 -15 -20 -11 -8 11 35 40 78 152 195 229 239 77 44 32 39 -55 -6
-160 -85 -344 -303 -425 -504 -70 -175 -122 -292 -117 -264 3 17 13 81 22 144
17 131 36 192 71 239 13 17 20 32 15 32 -10 0 -149 -143 -175 -180 -17 -25
-17 -25 -2 7 8 17 19 35 25 38 5 3 10 11 10 17 0 20 -32 -16 -62 -70 -17 -29
-32 -51 -34 -49 -7 7 37 139 62 188 12 25 35 60 49 78 50 58 8 31 -55 -36 -77
-82 -137 -174 -179 -273 -31 -71 -89 -169 -102 -170 -9 0 8 95 26 150 33 100
119 216 194 263 19 11 29 23 23 25 -18 6 -105 -53 -144 -96 -18 -20 -48 -62
-67 -92 -19 -30 -42 -67 -51 -81 -22 -32 -50 -126 -85 -284 -33 -146 -73 -253
-125 -334 -62 -96 -79 -134 -92 -212 l-12 -73 -18 55 c-44 126 -31 266 38 409
41 86 74 131 163 223 36 37 61 67 55 67 -17 0 -168 -161 -210 -224 -42 -63
-52 -72 -29 -23 16 31 15 31 -19 -8 -137 -157 -233 -434 -223 -648 3 -76 -1
-117 -18 -190 l-21 -92 -7 49 c-4 27 -7 76 -8 110 -1 85 -13 37 -30 -121 -7
-71 -17 -119 -22 -116 -17 10 -76 148 -98 229 -12 43 -24 81 -27 84 -8 8 7
-108 29 -213 19 -94 57 -218 94 -302 19 -44 16 -42 -40 28 -21 26 -56 62 -79
80 -40 31 -41 32 -24 5 24 -37 52 -145 83 -318 51 -281 98 -376 274 -550 64
-63 94 -94 66 -69 -27 25 -88 67 -134 94 -84 50 -119 86 -166 166 l-26 44 7
-40 c14 -88 89 -173 220 -250 130 -77 179 -135 266 -313 85 -173 146 -267 225
-344 117 -115 245 -169 398 -170 117 0 161 12 270 77 110 66 154 75 220 46 54
-24 59 -25 50 -11 -14 23 -86 50 -132 50 l-47 0 54 55 c75 76 105 83 207 50
48 -15 99 -24 133 -24 l55 2 -58 7 c-32 4 -61 11 -65 14 -4 4 17 4 46 0 71 -9
67 8 -10 39 -35 15 -56 26 -47 27 9 0 62 -23 118 -52 88 -44 112 -52 174 -56
63 -4 75 -2 97 17 l25 22 -25 -8 c-62 -20 -113 -8 -258 61 -123 59 -150 68
-199 69 -35 0 -72 -7 -93 -17 -31 -15 -32 -15 -15 -1 48 40 121 68 186 73 57
4 75 1 125 -22 51 -24 56 -24 39 -6 -10 11 -45 33 -78 50 -48 24 -73 30 -124
30 -81 0 -126 -19 -185 -77 -26 -26 -51 -43 -55 -39 -5 4 10 23 32 42 30 25
35 32 18 28 -33 -9 -28 1 13 26 19 12 33 25 30 28 -9 9 -67 -37 -160 -125 -47
-45 -86 -78 -86 -72 0 23 43 91 83 130 23 23 33 37 22 31 -56 -29 -164 -179
-165 -229 -1 -10 -12 5 -25 33 -14 28 -35 60 -46 70 -21 19 -21 18 1 -26 28
-54 31 -150 6 -198 -60 -116 -247 -66 -232 62 4 34 3 37 -10 24 -9 -8 -16 -31
-17 -51 -1 -20 -3 -37 -4 -37 -9 0 -44 85 -49 119 -11 69 8 98 93 136 40 19
73 39 73 45 0 7 -3 10 -7 8 -34 -16 -64 -28 -100 -37 -50 -14 -88 -57 -102
-117 l-9 -39 -1 53 c-1 66 24 117 80 166 42 35 171 96 206 96 10 0 25 5 33 10
12 8 11 10 -6 10 -54 0 -203 -60 -254 -104 -14 -11 -9 -3 10 18 57 63 131 103
280 152 81 27 158 59 181 76 51 37 45 46 -11 18 -23 -12 -44 -20 -46 -18 -2 2
21 16 51 31 33 16 54 22 52 14 -2 -13 1 -13 117 3 137 19 186 2 287 -99 36
-36 85 -76 110 -89 l44 -23 -35 28 c-49 40 -69 60 -122 130 -61 80 -82 93
-165 102 -37 5 -54 9 -38 11 65 5 103 -3 185 -37 129 -53 162 -64 168 -58 4 3
-5 9 -18 12 -14 4 -52 22 -85 40 -177 99 -280 126 -475 127 -74 1 -148 -3
-164 -7 -27 -8 -28 -7 -11 9 9 10 49 32 89 49 84 36 194 106 291 183 66 53
274 229 285 240 8 9 -52 -28 -85 -53 -16 -12 -52 -34 -80 -47 -58 -30 -218
-81 -210 -67 4 5 12 9 19 9 7 0 42 18 78 40 37 22 90 49 120 61 124 48 368
183 355 195 -2 3 -26 -9 -53 -25 -26 -17 -53 -31 -58 -31 -18 1 23 27 113 74
47 24 97 56 110 70 27 29 18 34 -17 10 -13 -9 -25 -14 -28 -11 -8 8 132 76
273 133 150 60 198 86 213 114 17 33 11 35 -19 6 -35 -34 -142 -67 -306 -96
-144 -26 -335 -50 -388 -50 -38 0 -32 4 60 35 124 41 203 80 308 151 95 63
213 169 202 180 -4 4 -24 -8 -45 -28 -88 -84 -264 -174 -408 -210 -80 -19
-118 -22 -379 -23 -169 -2 -312 -7 -344 -14 -90 -19 -69 -4 26 18 114 26 218
39 430 51 94 5 204 17 244 25 129 27 360 113 330 123 -7 2 20 19 60 37 138 60
321 178 385 247 26 28 23 27 -26 -9 -31 -22 -78 -52 -106 -66 -59 -30 -193
-72 -201 -63 -4 3 0 6 8 6 18 0 123 49 117 55 -2 2 -38 -8 -79 -24 -110 -43
-158 -48 -61 -7 46 19 109 49 140 67 67 37 231 151 232 160 0 4 -28 -2 -62
-12 -93 -29 -101 -19 -21 29 95 58 223 158 223 174 0 5 26 34 58 66 74 72 130
150 175 238 58 115 56 125 -9 55 -32 -35 -84 -81 -116 -102 -85 -58 -250 -135
-351 -164 -79 -22 -303 -52 -314 -42 -2 3 33 10 79 16 131 19 448 132 448 160
0 5 42 30 93 54 68 33 104 57 140 96 50 53 86 120 87 158 0 12 14 38 30 57 48
54 99 146 120 215 22 70 25 95 10 86 -5 -3 -10 -14 -10 -24 0 -73 -163 -273
-267 -328 -96 -51 -113 -50 -44 2 125 95 259 277 306 417 22 68 52 274 41 285
-2 2 -13 -27 -24 -64 -12 -37 -38 -96 -59 -130 -43 -71 -134 -177 -166 -194
-15 -9 -11 0 15 30 46 53 91 145 118 241 17 56 24 119 30 255 5 112 14 201 24
235 30 102 78 450 62 450 -3 0 -12 -13 -21 -29z m-218 -1548 c-46 -73 -120
-121 -236 -154 -36 -10 -66 -17 -68 -16 -1 2 29 19 68 37 38 19 77 43 87 54
13 15 7 13 -29 -8 -49 -28 -209 -90 -216 -83 -2 3 25 15 59 27 81 30 265 122
314 159 22 16 40 27 42 26 2 -2 -8 -21 -21 -42z m-1111 -112 c-3 -4 -92 -68
-198 -142 -525 -363 -764 -587 -1025 -957 -92 -130 -231 -400 -283 -550 -50
-142 -46 -103 6 59 103 321 305 630 601 919 209 205 372 333 681 536 97 64
186 122 197 130 24 16 28 17 21 5z m774 -1 c-8 -5 -19 -10 -25 -10 -5 0 -3 5
5 10 8 5 20 10 25 10 6 0 3 -5 -5 -10z m-2021 -287 c-7 -21 -22 -105 -35 -188
-12 -82 -22 -131 -23 -108 -2 63 17 190 41 271 12 40 23 70 26 68 2 -3 -2 -22
-9 -43z m268 -180 c-3 -10 -5 -4 -5 12 0 17 2 24 5 18 2 -7 2 -21 0 -30z
m-840 -85 c2 -145 25 -240 99 -416 99 -237 116 -307 119 -492 l3 -155 -7 140
c-8 161 -27 260 -46 242 -12 -11 -9 -50 4 -43 3 2 6 -8 7 -22 1 -15 6 -51 12
-81 7 -29 11 -90 10 -135 l-1 -81 -8 105 c-8 121 -54 287 -91 329 -12 14 -27
31 -32 36 -4 6 -3 0 3 -12 10 -20 9 -22 -6 -16 -13 5 -15 3 -10 -11 11 -27 20
-72 15 -66 -13 12 -89 231 -84 239 3 5 -6 53 -20 108 -33 122 -31 246 6 361
13 39 24 72 25 72 0 0 1 -46 2 -102z m808 -81 c-15 -45 -36 -100 -48 -122 -34
-69 -98 -154 -112 -149 -7 3 -18 -8 -25 -26 -28 -66 -26 -35 3 53 17 50 34 93
38 95 4 2 6 9 4 15 -3 7 4 39 15 72 l20 60 -6 -55 c-3 -30 -17 -79 -30 -109
-13 -30 -22 -56 -20 -59 6 -6 108 150 141 217 15 28 29 68 33 89 3 21 8 29 10
19 2 -10 -8 -55 -23 -100z m613 -34 c-10 -2 -28 -2 -40 0 -13 2 -5 4 17 4 22
1 32 -1 23 -4z m95 -10 c-7 -2 -21 -2 -30 0 -10 3 -4 5 12 5 17 0 24 -2 18 -5z
m-1242 -296 c45 -87 51 -118 50 -247 -1 -112 -4 -127 -22 -145 l-21 -20 7 86
c7 86 7 87 -35 185 -47 109 -64 162 -79 244 -5 30 -13 64 -16 75 -9 25 89
-123 116 -178z m748 110 c-2 -2 -20 -14 -39 -26 l-35 -23 30 26 c17 14 34 26
39 26 5 0 7 -1 5 -3z m228 -133 c-3 -3 -12 -4 -19 -1 -8 3 -5 6 6 6 11 1 17
-2 13 -5z m-38 -8 c-2 -2 -17 -6 -34 -10 -22 -5 -26 -4 -15 4 14 9 59 15 49 6z
m-224 -81 c-38 -19 -74 -34 -80 -33 -5 0 22 15 60 33 39 19 75 34 80 34 6 0
-21 -16 -60 -34z m-872 -208 l-6 -39 -14 32 c-7 18 -11 35 -8 38 3 3 5 0 5 -7
0 -7 4 -10 9 -6 5 3 8 22 5 43 -4 36 -4 36 6 7 5 -16 7 -47 3 -68z m-114 -202
c0 -11 -60 54 -92 100 -11 17 5 3 36 -30 31 -33 56 -64 56 -70z m-119 -205
c23 -34 40 -64 37 -67 -9 -8 -61 24 -93 59 -18 18 -41 52 -53 74 -19 39 -61
175 -61 199 0 5 29 -38 64 -97 36 -59 84 -135 106 -168z m307 28 c-2 -13 -4
-3 -4 22 0 25 2 35 4 23 2 -13 2 -33 0 -45z m20 10 c-3 -8 -6 -5 -6 6 -1 11 2
17 5 13 3 -3 4 -12 1 -19z m-13 -72 c-3 -15 -8 -25 -11 -23 -2 3 -1 17 3 31 3
15 8 25 11 23 2 -3 1 -17 -3 -31z m824 -23 c-21 -2 -57 -2 -80 0 -24 2 -7 4
37 4 44 0 63 -2 43 -4z m-175 -10 c-7 -2 -21 -2 -30 0 -10 3 -4 5 12 5 17 0
24 -2 18 -5z m-70 -10 c-7 -2 -19 -2 -25 0 -7 3 -2 5 12 5 14 0 19 -2 13 -5z
m-606 -65 c-3 -8 -6 -5 -6 6 -1 11 2 17 5 13 3 -3 4 -12 1 -19z m1025 -8 c-88
-41 -116 -47 -287 -71 -193 -26 -261 -42 -334 -78 -71 -36 -160 -116 -203
-182 -39 -60 -48 -64 -16 -7 37 67 132 162 195 196 75 39 139 57 298 82 216
34 216 33 -60 59 l-100 10 120 -6 c190 -10 285 -7 355 10 95 23 103 20 32 -13z
m-515 -6 c-3 -3 -12 -4 -19 -1 -8 3 -5 6 6 6 11 1 17 -2 13 -5z m-47 -14 c-8
-5 -19 -10 -25 -10 -5 0 -3 5 5 10 8 5 20 10 25 10 6 0 3 -5 -5 -10z m-453
-22 c-3 -8 -6 -5 -6 6 -1 11 2 17 5 13 3 -3 4 -12 1 -19z m373 -12 c0 -2 -17
-15 -37 -27 -21 -13 -67 -50 -103 -83 l-65 -60 50 53 c28 29 72 68 100 87 51
35 55 37 55 30z m-61 -303 c-30 -32 -57 -60 -62 -61 -4 -2 -5 -8 -1 -13 3 -5
-2 -12 -10 -15 -9 -3 -13 -11 -9 -17 4 -6 1 -7 -7 -2 -10 6 -10 11 3 20 9 7
14 15 10 18 -6 6 112 127 124 127 3 0 -18 -26 -48 -57z m746 20 c-16 -8 -38
-22 -47 -31 -11 -9 -18 -11 -18 -4 0 11 66 51 85 51 6 0 -3 -7 -20 -16z m-481
-85 c-67 -69 -126 -142 -167 -203 -30 -44 -36 -41 -12 6 9 16 13 34 10 38 -8
14 32 99 66 143 44 54 48 40 6 -19 -36 -50 -67 -106 -67 -120 0 -4 12 11 26
35 14 23 29 40 34 37 5 -3 12 0 16 6 5 8 3 9 -7 4 -8 -5 -3 4 11 20 25 28 131
115 140 115 2 0 -23 -28 -56 -62z m-361 -83 c-9 -16 -10 -16 -16 -1 -5 12 -3
15 5 10 8 -5 9 -1 4 12 -5 14 -4 16 4 7 8 -7 9 -17 3 -28z m158 -29 c-14 -36
4 -33 19 4 7 17 14 29 16 27 2 -2 -9 -37 -26 -77 -30 -72 -48 -105 -37 -65 3
11 9 34 12 50 6 26 4 25 -14 -10 -23 -48 -26 -43 -7 11 28 77 37 97 42 92 2
-3 0 -17 -5 -32z m219 20 c0 -2 -18 -15 -40 -30 -67 -44 -120 -97 -152 -151
-16 -27 -26 -39 -23 -25 13 46 83 127 147 169 64 41 68 44 68 37z m-403 -68
c-3 -8 -6 -5 -6 6 -1 11 2 17 5 13 3 -3 4 -12 1 -19z m130 -90 c-3 -8 -6 -5
-6 6 -1 11 2 17 5 13 3 -3 4 -12 1 -19z m702 -83 c-12 -19 -23 -35 -25 -35 -6
0 14 40 29 58 18 23 16 12 -4 -23z m-662 -117 c-3 -7 -5 -2 -5 12 0 14 2 19 5
13 2 -7 2 -19 0 -25z m613 -26 c0 -5 -7 -17 -15 -28 -14 -18 -14 -17 -4 9 12
27 19 34 19 19z m-679 -49 c13 -16 12 -17 -3 -4 -17 13 -22 21 -14 21 2 0 10
-8 17 -17z m620 -61 c-5 -9 -19 -26 -32 -37 -17 -15 -15 -10 7 17 32 41 40 48
25 20z m-456 -32 c10 -11 16 -20 13 -20 -3 0 -13 9 -23 20 -10 11 -16 20 -13
20 3 0 13 -9 23 -20z"/>
<path d="M1335 2220 c4 -14 14 -32 22 -40 12 -12 11 -7 -2 20 -22 45 -29 52
-20 20z"/>
<path d="M1642 1955 c-1 -22 -5 -51 -8 -65 -5 -21 -4 -22 6 -7 6 9 9 39 7 65
-3 46 -3 46 -5 7z"/>
<path d="M2368 1163 c7 -3 16 -2 19 1 4 3 -2 6 -13 5 -11 0 -14 -3 -6 -6z"/>
<path d="M2318 1153 c6 -2 18 -2 25 0 6 3 1 5 -13 5 -14 0 -19 -2 -12 -5z"/>
</g>
</svg>
